<svg xmlns="http://www.w3.org/2000/svg" xmlns:xlink="http://www.w3.org/1999/xlink" version="1.1" id="Camada_1" x="0px" y="0px" viewBox="0 0 102 44" style="enable-background:new 0 0 102 44;" xml:space="preserve" width="102"  height="44" >
<style type="text/css">
	.st0{fill:#FFFFFF;stroke:#D2D0CC;}
	.st1{fill:#079E44;}
	.st2{fill:#50CB57;}
	.st3{fill:#FFFFFF;}
</style>
<path class="st0" d="M4,0.5h94c1.9,0,3.5,1.6,3.5,3.5v36c0,1.9-1.6,3.5-3.5,3.5H4c-1.9,0-3.5-1.6-3.5-3.5V4C0.5,2.1,2.1,0.5,4,0.5z"/>
<g>
	<path class="st1" d="M32.8,22.7c-0.3-0.4-0.3-0.9,0-1.2l0.8-1.1c0.3-0.5,0.2-1.1-0.3-1.5l-1.1-0.8c-0.4-0.3-0.5-0.7-0.4-1.2   l0.4-1.3c0.2-0.6-0.2-1.2-0.8-1.3L30,14c-0.4-0.1-0.7-0.5-0.8-0.9l-0.1-1.4c-0.1-0.6-0.6-1-1.2-1l-1.4,0.1c-0.5,0-0.9-0.2-1.1-0.6   L25,8.9c-0.3-0.5-0.9-0.8-1.4-0.5L22.3,9c-0.4,0.2-0.9,0.1-1.2-0.2l-1-1c-0.4-0.4-1.1-0.4-1.5,0l-1,1c-0.3,0.3-0.8,0.4-1.2,0.2   l-1.2-0.6c-0.5-0.3-1.2,0-1.4,0.5l-0.6,1.2c-0.2,0.4-0.6,0.6-1.1,0.6l-1.4-0.1c-0.6-0.1-1.1,0.4-1.2,1L9.5,13   c0,0.4-0.4,0.8-0.8,0.9l-1.3,0.4c-0.6,0.1-0.9,0.7-0.8,1.3L7,16.9c0.1,0.4-0.1,0.9-0.4,1.2l-1.1,0.8c-0.5,0.3-0.6,1-0.3,1.5L6,21.5   c0.3,0.4,0.3,0.9,0,1.2l-0.8,1.1C4.9,24.3,5,25,5.5,25.3l1.1,0.8c0.4,0.3,0.5,0.7,0.4,1.1l-0.4,1.3c-0.2,0.6,0.2,1.2,0.8,1.3   l1.3,0.4c0.4,0.1,0.7,0.5,0.8,0.9l0.1,1.4c0.1,0.6,0.6,1,1.2,1l1.4-0.1c0.4,0,0.9,0.2,1,0.6l0.6,1.2c0.3,0.5,0.9,0.8,1.4,0.5   l1.2-0.6c0.4-0.2,0.9-0.1,1.2,0.2l1,1c0.4,0.4,1.1,0.4,1.5,0l1-1c0.3-0.3,0.8-0.4,1.2-0.2l1.2,0.6c0.5,0.2,1.2,0,1.4-0.5l0.6-1.2   c0.2-0.4,0.6-0.6,1-0.6l1.4,0.1c0.6,0.1,1.1-0.4,1.2-1l0.1-1.4c0-0.5,0.4-0.8,0.8-0.9l1.3-0.4c0.6-0.1,0.9-0.7,0.8-1.3l-0.4-1.3   c-0.1-0.4,0.1-0.9,0.4-1.1l1.1-0.8c0.5-0.3,0.6-1,0.3-1.5C33.6,23.8,32.8,22.7,32.8,22.7z"/>
	<path class="st2" d="M30.2,22.1c0,6-4.9,10.8-10.8,10.8S8.5,28.1,8.5,22.1s4.8-10.8,10.8-10.8S30.2,16.1,30.2,22.1"/>
	<path class="st3" d="M18.3,26.8c-0.4,0-0.8-0.1-1.1-0.4l-3.9-3.9c-0.6-0.6-0.6-1.5,0-2.1c0.6-0.6,1.5-0.6,2.1,0l2.9,2.9l5-5   c0.6-0.6,1.5-0.6,2.1,0c0.6,0.6,0.6,1.5,0,2.1l-6,6C19.1,26.6,18.7,26.8,18.3,26.8z"/>
</g>
<g>
	<g>
		<path d="M42,12.3c0-1.5,1.2-2.6,2.7-2.6c0.8,0,1.4,0.2,1.9,0.8l-0.3,0.3c-0.4-0.4-0.9-0.6-1.5-0.6c-1.2,0-2.2,0.9-2.2,2.1    s0.9,2.1,2.2,2.1c0.6,0,1.1-0.2,1.5-0.6l0.3,0.3c-0.5,0.5-1.1,0.8-1.9,0.8C43.2,14.9,42,13.8,42,12.3z"/>
		<path d="M51.4,14.4v0.5h-3.6V9.7h3.5v0.5h-3V12H51v0.5h-2.7v1.9L51.4,14.4L51.4,14.4z"/>
		<path d="M56.2,14.8l-1.2-1.7c-0.1,0-0.3,0-0.4,0h-1.4v1.6h-0.5V9.7h1.9c1.3,0,2.1,0.7,2.1,1.8c0,0.8-0.4,1.4-1.2,1.6l1.3,1.8    L56.2,14.8L56.2,14.8z M56.2,11.5c0-0.8-0.5-1.3-1.6-1.3h-1.4v2.6h1.4C55.7,12.8,56.2,12.3,56.2,11.5z"/>
		<path d="M59,10.2h-1.8V9.7h4.2v0.5h-1.8v4.7H59L59,10.2L59,10.2z"/>
		<path d="M62.2,9.7h0.5v5.2h-0.5V9.7z"/>
		<path d="M65,10.2v2h2.7v0.5H65v2.2h-0.5V9.7H68v0.5L65,10.2L65,10.2z"/>
		<path d="M69.1,9.7h0.5v5.2h-0.5V9.7z"/>
		<path d="M70.9,12.3c0-1.5,1.2-2.6,2.7-2.6c0.8,0,1.4,0.2,1.9,0.8l-0.3,0.3c-0.4-0.4-0.9-0.6-1.5-0.6c-1.2,0-2.2,0.9-2.2,2.1    s0.9,2.1,2.2,2.1c0.6,0,1.1-0.2,1.5-0.6l0.3,0.3c-0.5,0.5-1.1,0.8-1.9,0.8C72,14.9,70.9,13.8,70.9,12.3z"/>
		<path d="M79.7,13.5h-2.9l-0.6,1.4h-0.6L78,9.7h0.5l2.4,5.2h-0.6L79.7,13.5L79.7,13.5z M79.5,13l-1.2-2.8L77.1,13H79.5L79.5,13z"/>
		<path d="M81.8,9.7h2.1c1.6,0,2.8,1.1,2.8,2.6s-1.1,2.6-2.8,2.6h-2.1V9.7z M83.9,14.4c1.4,0,2.3-0.9,2.3-2.1s-0.9-2.1-2.3-2.1h-1.5    v4.2H83.9z"/>
		<path d="M87.4,12.3c0-1.5,1.2-2.6,2.7-2.6s2.7,1.1,2.7,2.6s-1.2,2.6-2.7,2.6C88.6,14.9,87.4,13.8,87.4,12.3z M92.3,12.3    c0-1.2-0.9-2.1-2.2-2.1s-2.2,0.9-2.2,2.1s0.9,2.1,2.2,2.1S92.3,13.5,92.3,12.3z"/>
	</g>
	<g>
		<path d="M45.5,33.7l-1-1.4c-0.1,0-0.2,0-0.4,0h-1.2v1.4h-0.5v-4.5h1.7c1.1,0,1.8,0.6,1.8,1.5c0,0.7-0.4,1.2-1,1.4l1.1,1.5H45.5    L45.5,33.7z M45.4,30.7c0-0.7-0.5-1.1-1.4-1.1h-1.2v2.3h1.2C45,31.8,45.4,31.4,45.4,30.7z"/>
		<path d="M50.2,33.2v0.4H47v-4.5h3.1v0.4h-2.6v1.6h2.3v0.4h-2.3v1.7L50.2,33.2L50.2,33.2z"/>
		<path d="M50.9,31.4c0-1.3,1-2.3,2.4-2.3c0.7,0,1.2,0.2,1.6,0.7l-0.3,0.3c-0.4-0.4-0.8-0.5-1.3-0.5c-1.1,0-1.9,0.8-1.9,1.9    s0.8,1.9,1.9,1.9c0.5,0,1-0.2,1.3-0.5l0.3,0.3c-0.4,0.4-1,0.7-1.6,0.7C51.9,33.7,50.9,32.7,50.9,31.4L50.9,31.4z"/>
		<path d="M55.9,29.2h0.5v4.1h2.5v0.4h-3V29.2L55.9,29.2z"/>
		<path d="M62.5,32.5H60l-0.5,1.2H59l2.1-4.5h0.5l2.1,4.5h-0.5L62.5,32.5z M62.4,32.1l-1.1-2.4l-1.1,2.4    C60.2,32.1,62.4,32.1,62.4,32.1z"/>
		<path d="M69,29.2v4.5h-0.5v-3.6l-1.8,3h-0.2l-1.8-3v3.6h-0.5v-4.5h0.4l2,3.3l1.9-3.3L69,29.2L69,29.2z"/>
		<path d="M73.6,33.2v0.4h-3.2v-4.5h3.1v0.4h-2.6v1.6h2.3v0.4h-2.3v1.7L73.6,33.2L73.6,33.2z"/>
		<path d="M79.2,32.5h-2.5l-0.5,1.2h-0.5l2.1-4.5h0.5l2.1,4.5h-0.5L79.2,32.5L79.2,32.5z M79.1,32.1L78,29.7l-1.1,2.4    C76.9,32.1,79.1,32.1,79.1,32.1z"/>
		<path d="M85.5,34c-0.3,0.3-0.7,0.5-1.1,0.5c-0.5,0-1-0.2-1.6-0.9c-1.3,0-2.3-1-2.3-2.3s1-2.3,2.4-2.3c1.4,0,2.4,1,2.4,2.3    c0,1.2-0.8,2-1.9,2.2c0.3,0.4,0.7,0.5,1,0.5c0.3,0,0.6-0.1,0.9-0.4L85.5,34z M82.9,33.3c1.1,0,1.9-0.8,1.9-1.9    c0-1.1-0.8-1.9-1.9-1.9c-1.1,0-1.9,0.8-1.9,1.9C81,32.5,81.8,33.3,82.9,33.3z"/>
		<path d="M86.3,31.7v-2.6h0.5v2.6c0,1.1,0.5,1.6,1.4,1.6c0.9,0,1.4-0.5,1.4-1.6v-2.6H90v2.6c0,1.3-0.7,2-1.8,2    C87,33.7,86.3,33,86.3,31.7L86.3,31.7z"/>
		<path d="M91.4,29.2h0.5v4.5h-0.5V29.2z"/>
	</g>
	<g>
		<path d="M46.6,24h-1.4v2.4h-2.6v-9.1h4.2c2.5,0,4.1,1.3,4.1,3.4c0,1.3-0.7,2.3-1.8,2.9l2,2.9h-2.8L46.6,24L46.6,24z M46.6,19.3    h-1.4V22h1.4c1.1,0,1.6-0.5,1.6-1.3S47.7,19.3,46.6,19.3L46.6,19.3z"/>
		<path d="M58.4,24.6h-3.9l-0.7,1.8h-2.6l4-9.1h2.5l4.1,9.1h-2.7L58.4,24.6L58.4,24.6z M57.6,22.7l-1.2-2.9l-1.2,2.9H57.6L57.6,22.7    z"/>
		<path d="M65.4,17.3v9.1h-2.6v-7.1h-1.7v-2L65.4,17.3L65.4,17.3z"/>
		<path d="M66.8,21.8c0-3,1.7-4.8,4-4.8s4,1.7,4,4.8s-1.7,4.8-4,4.8S66.8,24.8,66.8,21.8z M72.2,21.8c0-1.9-0.6-2.6-1.4-2.6    s-1.4,0.7-1.4,2.6s0.6,2.6,1.4,2.6S72.2,23.7,72.2,21.8z"/>
		<path d="M75.7,21.8c0-3,1.7-4.8,4-4.8s4,1.7,4,4.8s-1.7,4.8-4,4.8S75.7,24.8,75.7,21.8z M81.2,21.8c0-1.9-0.6-2.6-1.4-2.6    s-1.4,0.7-1.4,2.6s0.6,2.6,1.4,2.6S81.2,23.7,81.2,21.8z"/>
		<path d="M84.6,21.8c0-3,1.7-4.8,4-4.8c2.3,0,4,1.7,4,4.8s-1.7,4.8-4,4.8C86.4,26.6,84.6,24.8,84.6,21.8z M90.1,21.8    c0-1.9-0.6-2.6-1.4-2.6c-0.8,0-1.4,0.7-1.4,2.6s0.6,2.6,1.4,2.6C89.5,24.5,90.1,23.7,90.1,21.8z"/>
	</g>
</g>
</svg>